<?xml version="1.0" standalone="no"?>
<!DOCTYPE svg PUBLIC "-//W3C//DTD SVG 20010904//EN"
 "http://www.w3.org/TR/2001/REC-SVG-20010904/DTD/svg10.dtd">
<svg version="1.0" xmlns="http://www.w3.org/2000/svg"
 width="900.000000pt" height="636.000000pt" viewBox="0 0 900.000000 636.000000"
 preserveAspectRatio="xMidYMid meet">
<metadata>
Created by potrace 1.10, written by Peter Selinger 2001-2011
</metadata>
<g transform="translate(0.000000,636.000000) scale(0.100000,-0.100000)"
fill="#F5EEDC" stroke="none">
<path d="M4677 6006 c-157 -57 -234 -265 -154 -422 53 -105 151 -156 302 -158
76 -1 97 3 139 23 59 30 108 77 138 134 18 35 22 59 22 142 1 85 -3 106 -22
142 -28 53 -99 113 -160 135 -58 21 -210 23 -265 4z m182 -116 c51 -14 99 -51
111 -84 13 -37 13 -111 -1 -159 -26 -94 -190 -128 -277 -57 -81 67 -62 234 33
287 44 25 82 28 134 13z"/>
<path d="M3855 5984 c-11 -3 -45 -9 -75 -14 -307 -51 -294 -48 -298 -82 -5
-38 13 -65 47 -73 35 -7 44 -28 67 -161 30 -165 30 -168 -5 -193 -34 -25 -41
-63 -17 -96 13 -18 17 -18 129 -3 145 21 157 27 157 78 0 41 -7 49 -55 65 -40
13 -45 48 -11 70 13 9 57 21 97 27 112 15 163 47 194 121 20 49 19 86 -5 149
-32 86 -125 132 -225 112z m74 -140 c30 -38 27 -77 -8 -107 -30 -25 -138 -54
-165 -44 -20 8 -43 114 -29 136 14 23 69 40 130 40 44 1 55 -3 72 -25z"/>
<path d="M5852 5768 c-7 -7 -12 -26 -12 -43 0 -26 6 -34 35 -48 46 -22 49 -32
31 -98 -30 -106 -49 -151 -81 -185 -29 -30 -38 -34 -84 -34 -73 0 -110 34
-119 110 -6 50 -10 56 -42 71 -87 41 -115 18 -105 -85 8 -71 21 -99 72 -148
112 -108 287 -115 385 -15 47 49 68 94 128 274 52 155 55 148 -61 187 -82 28
-128 33 -147 14z"/>
<path d="M2347 5446 c-56 -21 -98 -52 -137 -103 -30 -40 -34 -53 -35 -105 0
-58 1 -61 42 -98 41 -36 43 -40 42 -91 -1 -65 9 -95 47 -133 72 -72 142 -74
304 -8 43 17 120 93 145 143 29 57 34 149 10 206 -14 32 -14 39 0 59 8 13 15
34 15 47 0 24 -27 57 -48 57 -25 0 -185 -96 -195 -117 -13 -29 13 -71 55 -85
44 -15 63 -66 44 -112 -18 -43 -108 -106 -164 -113 -35 -5 -41 -2 -62 26 -29
42 -21 70 30 111 44 35 49 53 21 89 -18 23 -22 24 -65 14 -62 -14 -90 3 -75
46 12 35 61 61 113 61 41 0 116 42 116 65 0 42 -130 68 -203 41z"/>
<path d="M6610 5403 c-17 -22 -20 -36 -16 -65 8 -47 5 -50 -147 -152 -109 -73
-120 -78 -158 -73 -33 4 -44 1 -64 -19 -45 -45 -34 -61 98 -148 47 -31 94 -56
106 -56 32 0 52 39 49 96 -3 47 -2 49 24 52 52 6 183 -92 170 -127 -8 -22 -22
-31 -54 -31 -26 0 -68 -39 -68 -65 0 -17 34 -46 130 -109 91 -60 109 -65 132
-38 27 30 30 57 8 85 -24 30 -24 33 -5 122 9 39 23 104 32 145 8 41 22 102 29
136 22 93 19 108 -23 142 -62 47 -195 132 -209 132 -7 0 -22 -12 -34 -27z
m105 -234 c4 -6 4 -26 1 -45 -6 -29 -11 -34 -36 -34 -40 0 -50 33 -19 66 24
26 44 31 54 13z"/>
<path d="M4692 5008 c-20 -20 7 -66 51 -88 23 -11 50 -26 59 -34 47 -36 65
-169 28 -206 -11 -11 -24 -20 -29 -20 -25 0 -32 -64 -29 -284 3 -214 4 -228
23 -242 53 -38 55 -42 55 -107 0 -36 -5 -68 -12 -75 -9 -9 -73 -12 -225 -12
-240 0 -247 -2 -301 -69 -18 -23 -42 -41 -52 -41 -12 0 -35 21 -58 53 -54 73
-65 95 -58 123 5 20 3 24 -18 24 -31 0 -66 43 -66 81 0 27 -2 28 -25 17 -29
-13 -31 -25 -9 -49 9 -10 18 -37 21 -61 3 -24 13 -52 23 -63 26 -30 90 -184
90 -217 0 -20 -14 -44 -47 -81 -57 -61 -85 -86 -97 -87 -4 0 -48 37 -95 83
-58 54 -111 93 -157 116 -86 43 -114 67 -114 100 0 25 -18 142 -46 298 -7 45
-14 94 -14 110 -1 60 -41 117 -138 194 -37 30 -164 0 -202 -47 -43 -54 -45
-64 -50 -284 -5 -207 -6 -215 -26 -225 -41 -20 -54 -37 -54 -70 0 -40 23 -61
75 -70 170 -29 314 -85 369 -144 17 -17 25 -31 18 -31 -6 0 -14 5 -17 10 -10
17 -101 60 -168 80 -96 29 -231 44 -268 31 -18 -6 -42 -11 -54 -11 -13 0 -46
-8 -75 -17 -42 -13 -58 -14 -82 -5 -39 14 -66 1 -74 -36 -11 -51 -15 -57 -60
-107 -25 -27 -53 -62 -62 -78 -20 -33 -41 -41 -75 -28 -18 7 -30 6 -43 -4 -18
-13 -18 -15 4 -67 26 -63 27 -74 8 -136 -8 -26 -22 -73 -31 -104 -13 -50 -19
-58 -39 -58 -63 0 -75 -38 -26 -85 40 -38 48 -70 52 -204 l3 -114 -30 -17
c-18 -10 -31 -26 -33 -41 -2 -20 6 -29 47 -52 58 -32 56 -29 98 -125 l32 -74
-30 -28 c-21 -19 -30 -35 -27 -51 2 -20 16 -28 83 -50 97 -31 204 -106 189
-131 -3 -4 -117 -8 -254 -8 -283 0 -276 -3 -235 82 14 29 25 56 25 61 0 19
-42 -28 -74 -83 l-32 -55 -55 0 -54 0 2 40 c2 38 1 39 -13 20 -61 -82 -87 -85
-92 -13 -3 47 31 183 49 194 5 3 9 15 9 26 0 21 -1 21 -26 -3 -14 -13 -38 -45
-52 -71 -15 -27 -34 -48 -43 -48 -9 0 -35 29 -58 65 -39 61 -105 124 -117 113
-2 -3 11 -29 31 -59 48 -74 87 -179 83 -226 -2 -31 -7 -39 -26 -41 -30 -4 -46
10 -72 62 -24 51 -70 99 -70 73 0 -9 4 -18 9 -21 14 -9 40 -92 32 -104 -3 -5
-54 -12 -113 -14 -89 -2 -111 -6 -134 -24 -52 -38 -52 -65 0 -171 26 -51 46
-101 44 -111 -2 -11 -28 -24 -78 -39 -41 -13 -91 -31 -110 -40 l-35 -17 35 -7
c19 -5 89 -9 155 -11 162 -3 5552 -3 5640 1 204 8 240 12 220 27 -10 8 -56 25
-102 39 -49 15 -86 33 -92 43 -7 13 1 38 31 97 50 99 54 144 16 182 -22 22
-39 27 -88 31 -77 6 -83 18 -45 89 15 29 26 56 23 59 -7 6 -67 -63 -93 -108
-16 -27 -27 -34 -58 -36 -54 -5 -68 10 -55 56 12 44 64 151 84 173 18 20 18
29 0 29 -20 0 -98 -91 -125 -145 -68 -136 -74 0 -8 165 15 35 24 66 21 69 -18
18 -104 -163 -118 -250 -4 -21 -14 -43 -22 -50 -14 -11 -24 -4 -75 53 -59 66
-124 116 -136 104 -4 -3 7 -21 23 -39 82 -87 112 -145 84 -162 -6 -3 -40 25
-76 64 -81 86 -110 94 -58 16 56 -84 53 -86 -132 -83 -94 2 -159 7 -161 13 -1
6 8 23 22 39 30 35 68 114 97 199 29 86 31 328 4 432 -39 149 -110 251 -193
279 -78 27 -213 18 -213 -14 0 -4 -10 -30 -22 -57 l-22 -48 -7 85 c-4 47 -7
147 -8 222 -1 112 2 139 15 152 8 9 20 16 26 16 6 0 8 14 4 38 -5 32 -5 34 6
17 14 -24 39 -44 54 -45 21 0 23 29 7 96 -15 61 -15 69 0 118 10 29 17 60 17
70 0 23 -27 31 -46 15 -14 -11 -18 -11 -28 2 -6 9 -20 19 -32 23 -11 3 -31 25
-44 49 -54 99 -96 122 -251 136 -63 6 -260 11 -440 11 -239 0 -328 3 -337 12
-7 7 -12 40 -12 76 0 59 3 66 31 93 l32 30 -1 246 -1 246 -27 22 c-24 19 -28
31 -34 101 -7 87 -20 127 -53 162 -40 44 -167 98 -185 80z m-1209 -578 c11 0
17 -3 13 -7 -4 -5 -37 -8 -73 -9 -59 -1 -63 0 -42 13 13 7 37 11 53 8 16 -3
38 -5 49 -5z m2284 -555 c45 -13 93 -48 82 -60 -3 -2 -45 0 -95 5 -49 5 -159
14 -244 20 -301 19 -441 33 -428 41 7 5 153 9 324 9 246 0 321 -3 361 -15z
m-613 -114 c8 -13 -18 -32 -82 -58 -87 -35 -82 -11 8 41 48 27 66 31 74 17z
m120 3 c9 -3 16 -11 16 -17 0 -6 7 -18 16 -28 22 -24 35 -144 24 -213 -10 -61
-51 -126 -79 -126 -65 0 -110 170 -76 286 27 94 50 117 99 98z m568 -81 c19
-10 43 -38 56 -63 22 -44 22 -49 22 -441 0 -408 -1 -415 -37 -401 -10 3 -13
93 -13 401 0 218 -3 406 -6 418 -7 27 -40 39 -59 23 -12 -10 -15 -80 -17 -424
l-3 -411 -25 0 -25 0 -3 409 c-1 282 -6 413 -13 423 -13 15 -45 17 -54 3 -3
-5 -6 -194 -5 -419 0 -353 -2 -410 -15 -421 -8 -7 -22 -10 -30 -6 -13 5 -15
58 -15 408 0 349 -2 407 -16 426 -17 24 -39 29 -51 10 -4 -7 -10 -197 -13
-423 l-5 -410 -25 0 -25 0 -3 390 -2 389 25 52 c24 49 37 59 115 88 8 3 59 4
112 2 72 -3 107 -9 130 -23z m-2449 -163 c36 -16 69 -30 75 -30 28 0 83 -123
63 -143 -9 -9 -75 5 -131 29 -35 15 -40 23 -98 166 -7 16 28 8 91 -22z m1423
-22 c3 -11 2 -24 -3 -29 -5 -5 -143 -8 -324 -7 l-314 3 0 25 0 25 295 5 c162
3 305 3 317 1 12 -2 25 -12 29 -23z m-1688 -62 c51 -26 110 -125 138 -231 70
-266 53 -550 -45 -752 -82 -166 -198 -178 -290 -30 -105 171 -132 557 -55 795
61 189 153 269 252 218z m1727 -76 c20 -7 26 -16 23 -33 l-3 -22 -380 0 c-371
0 -380 0 -380 20 0 41 32 45 382 45 198 0 342 -4 358 -10z m-45 -170 c6 -8 9
-22 7 -30 -2 -13 -46 -15 -322 -15 l-320 0 0 25 c0 17 7 26 25 31 14 5 155 7
313 6 243 -2 289 -4 297 -17z m-1306 -45 c40 -25 81 -56 89 -68 20 -31 32
-113 18 -121 -15 -10 -161 55 -176 78 -15 23 -24 156 -10 156 2 0 38 -20 79
-45z m1703 -179 c51 -58 78 -110 104 -203 12 -43 26 -81 33 -85 6 -4 84 -8
174 -8 180 0 170 4 186 -72 4 -16 15 -30 28 -34 20 -6 17 -9 -22 -20 -31 -9
-106 -14 -236 -14 -166 0 -193 2 -205 17 -9 11 -14 45 -15 102 -1 112 -16 171
-69 276 -49 96 -41 112 22 41z m-435 -113 c64 -38 103 -161 102 -323 -1 -115
-9 -158 -50 -242 -20 -44 -82 -81 -117 -72 -59 14 -113 115 -128 241 -21 166
18 325 93 389 35 29 59 30 100 7z m-1248 -108 c68 -65 68 -66 62 -107 -7 -45
-21 -68 -40 -68 -7 0 -38 19 -70 42 l-58 43 7 70 c7 72 11 85 23 85 4 0 38
-29 76 -65z m2469 -83 c26 -28 47 -110 47 -182 0 -94 -38 -190 -75 -190 -16 0
-26 24 -16 36 15 18 32 96 33 152 1 61 -20 169 -34 178 -15 9 -8 24 10 24 11
0 26 -8 35 -18z m-1915 -13 l57 -2 -60 -7 c-80 -10 -93 -17 -104 -54 l-9 -31
-1 30 c-1 38 26 78 46 71 8 -3 40 -7 71 -7z m1628 -217 c14 -8 19 -22 20 -54
1 -54 35 -143 80 -209 19 -28 34 -57 34 -65 0 -12 -58 -14 -359 -14 -198 0
-362 4 -365 9 -3 4 7 28 22 52 53 84 102 203 102 250 0 10 10 25 22 33 19 14
54 15 224 12 117 -2 209 -8 220 -14z m-2300 -54 c49 -58 64 -83 64 -107 0 -27
-34 -91 -48 -91 -4 0 -29 20 -55 44 -48 44 -50 49 -26 101 5 11 13 32 19 48
12 33 21 34 46 5z m509 -85 c18 -34 53 -88 79 -121 25 -33 46 -65 46 -71 0
-14 -396 -15 -404 -2 -3 5 6 20 21 32 66 59 141 138 171 182 18 27 38 47 43
45 6 -2 26 -31 44 -65z"/>
<path d="M5233 3718 c-34 -38 -53 -88 -53 -139 0 -82 62 -191 92 -161 10 10 9
23 -5 61 -22 61 -22 123 -1 182 26 70 7 101 -33 57z"/>
<path d="M3048 3387 c-12 -24 -15 -100 -4 -135 11 -33 35 -26 52 14 14 33 13
60 -2 116 -8 26 -32 29 -46 5z"/>
<path d="M2927 3173 c-10 -10 -8 -136 3 -153 6 -10 3 -21 -13 -38 -32 -35 -31
-130 2 -166 19 -20 22 -29 13 -38 -18 -18 -15 -130 3 -154 15 -19 15 -18 36 6
17 20 20 34 16 75 -2 27 -8 58 -12 68 -11 25 12 22 56 -9 44 -30 69 -23 94 27
20 37 23 176 5 210 -32 61 -65 74 -100 39 -38 -38 -50 -27 -43 43 4 51 2 66
-11 80 -18 18 -38 22 -49 10z"/>
<path d="M3166 3158 c-16 -60 -2 -138 23 -138 9 0 22 5 29 12 16 16 16 120 0
136 -19 19 -45 14 -52 -10z"/>
<path d="M3180 2750 c-15 -37 -7 -107 15 -129 15 -15 17 -14 31 3 14 20 19
110 8 140 -10 26 -41 18 -54 -14z"/>
<path d="M3046 2554 c-11 -28 -6 -130 7 -148 12 -16 14 -16 30 2 26 28 32 82
13 125 -16 38 -39 49 -50 21z"/>
<path d="M4705 2789 c-54 -26 -101 -167 -92 -271 7 -83 32 -160 62 -196 30
-36 72 -49 92 -29 13 12 11 22 -14 68 -26 51 -28 61 -28 179 0 118 2 128 28
178 22 42 26 57 16 68 -13 16 -35 17 -64 3z"/>
<path d="M7426 4769 c-23 -18 -26 -27 -24 -71 3 -55 10 -45 -97 -133 -134
-111 -131 -109 -175 -95 -38 12 -42 12 -65 -10 -14 -13 -25 -33 -25 -44 0 -24
180 -240 232 -280 65 -49 125 -69 193 -64 189 16 338 223 272 380 -8 20 -31
59 -50 87 -48 72 -207 251 -222 251 -7 0 -24 -9 -39 -21z m148 -271 c32 -37
36 -48 36 -99 0 -49 -5 -63 -33 -100 -38 -50 -111 -91 -162 -91 -47 0 -104 38
-130 86 l-20 37 45 42 c25 23 69 62 98 86 29 23 62 51 75 62 33 28 52 23 91
-23z"/>
<path d="M1371 4653 c-17 -21 -85 -103 -151 -183 -66 -80 -120 -153 -120 -164
0 -20 83 -102 113 -112 21 -6 63 27 72 57 3 10 -2 30 -11 44 -16 24 -16 28 -1
42 25 25 55 10 167 -85 l105 -89 -3 -45 c-2 -40 1 -49 24 -67 15 -12 32 -21
39 -21 7 0 37 28 67 63 116 133 129 163 83 193 -23 15 -39 15 -90 -1 -15 -4
-47 16 -128 81 -59 47 -115 97 -124 111 -16 24 -16 26 1 38 11 8 31 11 52 8
27 -5 40 -1 59 17 14 13 25 31 25 41 0 25 -97 109 -126 109 -14 0 -34 -14 -53
-37z"/>
<path d="M4170 4281 c-25 -4 -63 -17 -85 -29 -38 -20 -39 -22 -17 -28 20 -6
22 -11 16 -37 l-7 -31 47 44 c56 54 77 63 113 49 53 -20 58 -67 12 -122 -50
-60 -28 -68 30 -9 56 57 75 94 66 129 -10 40 -64 50 -175 34z"/>
<path d="M3909 4162 c-48 -32 -106 -87 -133 -126 -53 -79 -25 -116 90 -116 40
0 79 3 88 6 31 12 16 24 -30 24 -77 0 -108 25 -99 79 9 48 36 72 89 78 40 5
43 7 33 23 -8 14 -8 22 2 34 18 22 -5 21 -40 -2z"/>
<path d="M798 3768 c-34 -26 -54 -56 -98 -143 -76 -151 -130 -272 -130 -290 0
-15 48 -45 73 -45 8 0 20 7 27 15 21 26 66 17 182 -35 131 -59 148 -72 148
-115 0 -37 32 -65 74 -65 26 0 24 -3 110 182 32 69 32 73 4 92 -28 20 -72 20
-88 1 -32 -38 -93 1 -70 45 22 40 78 52 118 24 64 -44 100 -35 129 34 7 18 26
61 42 95 44 96 45 102 19 119 -49 31 -57 30 -100 -17 -36 -39 -46 -45 -82 -45
-40 0 -41 1 -71 63 -25 52 -38 66 -80 89 -74 41 -149 39 -207 -4z m122 -118
c18 0 50 -45 50 -69 0 -14 -13 -54 -30 -88 -33 -72 -46 -76 -116 -42 -52 25
-60 45 -37 95 37 82 76 120 111 108 8 -2 18 -4 22 -4z"/>
<path d="M8258 3539 c-10 -5 -22 -27 -28 -49 -6 -22 -20 -45 -31 -51 -24 -12
-259 -89 -275 -89 -6 0 -21 11 -34 25 -27 29 -56 32 -88 9 -27 -19 -28 -32 -1
-119 53 -173 62 -185 121 -161 27 12 35 22 43 58 l11 43 87 29 c103 34 119 29
89 -30 -11 -22 -32 -54 -46 -73 -49 -66 -35 -85 94 -126 30 -10 59 -21 64 -26
15 -14 -13 -38 -58 -49 -22 -6 -50 -15 -61 -20 -49 -21 -72 -20 -101 6 -22 19
-36 24 -59 19 -57 -11 -60 -23 -31 -121 45 -154 52 -169 76 -172 12 -2 35 2
51 8 27 12 33 23 41 74 2 16 34 30 151 70 l147 49 30 -28 c30 -29 31 -29 73
-14 37 13 42 18 40 42 -1 16 -16 66 -34 113 -35 94 -42 99 -144 129 -62 17
-105 39 -105 54 0 5 25 45 55 89 63 93 68 120 33 216 -37 103 -61 124 -110 95z"/>
<path d="M876 2757 c-33 -43 -41 -45 -356 -114 -113 -24 -139 -33 -149 -51 -4
-9 -16 -75 -26 -146 -18 -125 -18 -129 0 -143 25 -18 80 -17 95 2 20 24 44 18
137 -36 48 -29 107 -63 130 -76 48 -28 58 -39 67 -75 9 -39 50 -64 84 -52 22
8 29 19 39 64 7 30 16 94 19 141 7 85 6 86 -17 92 -42 11 -65 8 -84 -13 -12
-13 -29 -20 -44 -18 -22 2 -27 9 -29 38 -4 41 15 150 30 168 18 21 54 14 66
-13 14 -31 52 -50 85 -41 30 7 42 46 58 179 7 63 8 102 2 108 -5 5 -26 12 -45
15 -32 6 -38 3 -62 -29z m-248 -278 c4 -36 -18 -53 -51 -38 -34 15 -43 40 -20
57 29 21 67 11 71 -19z"/>
<path d="M228 2635 c-18 -41 3 -75 47 -75 44 0 65 34 47 75 -9 20 -19 25 -47
25 -28 0 -38 -5 -47 -25z"/>
<path d="M214 2475 c-37 -37 -19 -84 33 -85 39 0 66 45 45 76 -4 6 -17 16 -30
23 -19 10 -26 8 -48 -14z"/>
<path d="M8520 2341 c-61 -9 -70 -16 -70 -56 0 -30 5 -37 40 -55 41 -21 52
-48 27 -68 -14 -12 -264 -28 -300 -18 -14 3 -32 18 -39 34 -10 21 -21 28 -49
30 -64 5 -72 -13 -64 -142 8 -130 11 -143 33 -155 29 -15 87 1 90 26 7 45 27
51 192 55 l155 3 3 -25 c2 -19 -5 -29 -28 -42 -25 -14 -30 -23 -30 -56 0 -56
14 -63 103 -56 60 6 78 11 82 24 3 10 1 120 -5 246 -13 281 -9 274 -140 255z"/>
<path d="M815 1733 c-29 -7 -45 -23 -45 -43 0 -10 -7 -24 -16 -31 -19 -16
-129 -36 -246 -45 l-76 -6 -16 31 c-14 25 -23 31 -51 31 -31 0 -65 -20 -65
-39 0 -4 7 -52 15 -107 17 -113 19 -115 126 -169 110 -56 110 -61 4 -165 l-67
-65 6 -80 c8 -95 22 -151 39 -158 6 -2 27 -2 46 1 28 4 36 11 49 44 10 24 23
40 36 42 68 13 236 36 263 36 24 0 37 -7 53 -30 25 -35 69 -41 98 -12 18 18
18 25 5 136 -17 150 -22 160 -76 151 -54 -9 -54 -9 -61 -50 -4 -19 -10 -36
-14 -38 -4 -3 -51 -8 -104 -12 -94 -7 -98 -6 -98 13 0 13 24 41 60 73 88 76
80 101 -52 163 -48 23 -65 43 -50 58 14 14 89 27 159 27 47 1 53 -2 65 -26 26
-55 118 -37 118 22 0 13 -7 59 -15 102 -8 43 -15 90 -15 105 0 17 -8 31 -19
38 -21 11 -24 11 -56 3z"/>
<path d="M2668 1509 c-25 -14 -23 -65 2 -81 17 -11 20 -24 20 -89 0 -61 -4
-81 -20 -102 -11 -14 -20 -36 -20 -50 0 -22 5 -25 53 -31 78 -9 202 -7 231 4
22 8 26 16 26 53 0 24 -5 48 -12 55 -20 20 -74 15 -90 -10 -16 -24 -48 -20
-48 7 0 10 10 15 30 15 26 0 30 3 30 29 0 42 -9 61 -30 61 -10 0 -24 7 -31 16
-11 14 -10 18 5 29 23 18 45 9 52 -21 5 -18 13 -24 34 -24 41 0 60 24 60 75 0
66 -19 75 -160 75 -63 0 -123 -5 -132 -11z"/>
<path d="M3205 1501 c-84 -38 -99 -139 -27 -188 l34 -22 -29 -6 c-15 -4 -34
-8 -40 -11 -23 -7 -14 -44 21 -81 l34 -37 83 0 c96 0 127 14 153 69 21 44 12
79 -27 109 l-31 25 26 12 c37 16 41 34 18 78 -33 66 -132 90 -215 52z m106
-101 l24 -19 -37 -1 c-36 0 -50 15 -31 33 10 11 19 8 44 -13z m9 -135 c0 -16
-35 -20 -64 -9 -29 11 -16 24 24 24 29 0 40 -4 40 -15z"/>
<path d="M3629 1499 c-22 -22 -26 -81 -6 -97 7 -6 30 -12 52 -14 l40 -3 3 -61
c2 -53 0 -63 -23 -88 -26 -28 -30 -43 -17 -64 9 -14 169 -21 190 -9 19 13 14
44 -13 73 -21 23 -25 37 -25 90 0 67 8 81 39 64 14 -7 27 -7 45 2 22 9 26 18
26 54 0 68 -11 73 -161 73 -115 0 -132 -2 -150 -20z"/>
<path d="M4723 1500 c-25 -11 -51 -33 -63 -52 -19 -31 -19 -34 -3 -45 22 -17
72 -16 103 2 38 22 80 19 80 -5 0 -14 -9 -21 -37 -26 -112 -21 -163 -72 -163
-161 l0 -52 43 -6 c69 -10 267 -1 275 12 12 19 1 104 -14 109 -8 2 -21 6 -29
8 -10 4 -5 14 20 39 62 62 37 125 -68 176 -53 26 -90 26 -144 1z m147 -234 c0
-16 -21 -26 -55 -26 -31 0 -40 16 -18 29 27 15 73 14 73 -3z"/>
<path d="M5219 1501 c-55 -30 -72 -64 -77 -152 -3 -58 0 -84 13 -113 57 -120
250 -117 299 4 39 98 6 218 -69 254 -59 28 -122 30 -166 7z m121 -110 c5 -11
10 -40 10 -65 0 -53 -26 -88 -58 -79 -40 10 -58 109 -25 145 21 24 60 23 73
-1z"/>
<path d="M6083 1501 c-52 -24 -78 -63 -78 -117 0 -31 7 -49 25 -69 21 -22 22
-28 10 -35 -8 -5 -18 -10 -22 -10 -5 0 -8 -12 -8 -26 0 -41 47 -80 107 -89
119 -16 202 25 204 102 5 171 -10 218 -82 245 -58 22 -105 22 -156 -1z m122
-126 c0 -15 -8 -21 -34 -23 -38 -4 -57 9 -47 33 4 12 16 15 43 13 30 -2 38 -7
38 -23z m-20 -120 c-21 -17 -37 -15 -43 3 -2 8 8 12 30 12 31 -1 32 -1 13 -15z"/>
<path d="M5712 1496 c-40 -10 -82 -45 -82 -67 0 -5 11 -19 25 -31 21 -18 25
-30 25 -79 0 -47 -5 -63 -26 -88 -31 -37 -25 -66 14 -74 36 -7 145 -3 160 7
19 11 14 47 -10 73 -19 20 -21 33 -19 128 1 104 -8 146 -32 144 -7 -1 -32 -6
-55 -13z"/>
<path d="M8170 1436 c-19 -6 -58 -34 -86 -62 -63 -64 -89 -136 -82 -228 13
-156 102 -221 368 -266 123 -21 165 -23 177 -8 6 7 19 60 29 116 19 118 16
128 -47 138 -34 6 -36 5 -53 -40 -10 -26 -26 -48 -37 -51 -50 -16 -242 29
-274 65 -11 12 -20 41 -23 73 -5 69 19 101 93 122 33 10 56 23 59 33 14 52 16
95 5 108 -13 16 -77 17 -129 0z"/>
<path d="M4115 1226 c-31 -46 23 -89 77 -62 29 15 34 42 12 67 -25 27 -70 25
-89 -5z"/>
<path d="M1978 951 c-76 -4 -140 -10 -143 -13 -6 -6 87 -48 108 -48 7 0 33 -6
58 -14 24 -8 77 -24 117 -36 78 -23 79 -24 146 -143 48 -85 102 -106 379 -152
87 -14 163 -28 170 -30 7 -3 41 -9 77 -14 73 -11 324 -53 445 -75 44 -8 121
-22 170 -30 50 -8 128 -22 175 -30 47 -8 128 -22 180 -31 52 -9 131 -22 175
-30 44 -8 123 -21 175 -30 52 -9 131 -24 175 -33 120 -24 247 -20 400 13 72
15 141 29 155 32 161 28 400 71 460 83 25 5 86 17 135 26 50 8 122 22 160 29
39 7 111 20 160 29 50 9 122 23 160 31 39 8 111 21 160 30 218 40 254 47 325
62 128 28 169 59 229 173 13 25 28 50 33 57 10 12 79 35 208 68 36 9 87 27
114 38 l48 21 -28 10 c-33 11 -4899 17 -5126 7z"/>
</g>
</svg>
